<svg fill="none" height="51" viewBox="0 0 50 51" width="50" xmlns="http://www.w3.org/2000/svg"><path d="m.3125 6.27799c0-1.65926.651895-3.25056 1.81228-4.42383 1.16038-1.173278 2.73419-1.8324162 4.37522-1.8324162h18.5625c1.641 0 3.2148.6591382 4.3752 1.8324162 1.1604 1.17327 1.8123 2.76457 1.8123 4.42383v3.12813h12.375c1.641 0 3.2148.65918 4.3752 1.83238 1.1604 1.1733 1.8123 2.7646 1.8123 4.4239v31.2812c0 .8296-.326 1.6253-.9061 2.2119-.5802.5867-1.3671.9162-2.1877.9162h-43.31245c-.82051 0-1.60742-.3295-2.18761-.9162-.580192-.5866-.90614-1.3823-.90614-2.2119zm30.9375 40.66561h6.1875v-6.2562h-6.1875zm9.2812 0h6.1875v-31.2812c0-.8297-.3259-1.6253-.9061-2.2119-.5802-.5867-1.3671-.9163-2.1876-.9163h-18.5625c-.8205 0-1.6074.3296-2.1876.9163-.5802.5866-.9062 1.3822-.9062 2.2119v31.2812h6.1875v-6.2562c0-.8297.326-1.6253.9062-2.212.5802-.5866 1.3671-.9162 2.1876-.9162h6.1875c.8205 0 1.6074.3296 2.1876.9162.5802.5867.9061 1.3823.9061 2.212zm-12.375-40.66561c0-.82963-.3259-1.62528-.9061-2.21191-.5802-.58664-1.3671-.91621-2.1876-.91621h-18.5625c-.82051 0-1.60742.32957-2.18761.91621-.58019.58663-.90614 1.38228-.90614 2.21191v40.66561h15.46875v-31.2812c0-1.6593.6519-3.2506 1.8123-4.4239 1.1604-1.1732 2.7342-1.83238 4.3752-1.83238h3.0937zm3.0938 14.85861c0 .6222-.2445 1.2189-.6796 1.6589s-1.0253.6872-1.6407.6872-1.2056-.2472-1.6407-.6872c-.4352-.44-.6796-1.0367-.6796-1.6589s.2444-1.219.6796-1.659c.4351-.4399 1.0253-.6871 1.6407-.6871s1.2056.2472 1.6407.6871c.4351.44.6796 1.0368.6796 1.659zm-20.8828 2.3461c.6154 0 1.2056-.2472 1.6407-.6872s.6796-1.0367.6796-1.6589-.2445-1.219-.6796-1.659c-.4351-.4399-1.0253-.6871-1.6407-.6871s-1.20558.2472-1.64072.6871c-.43514.44-.67961 1.0368-.67961 1.659s.24447 1.2189.67961 1.6589 1.02532.6872 1.64072.6872zm2.3203-11.7305c0 .6222-.2445 1.219-.6796 1.659-.4351.4399-1.0253.6871-1.6407.6871s-1.20558-.2472-1.64072-.6871c-.43514-.44-.67961-1.0368-.67961-1.659s.24447-1.2189.67961-1.6589 1.02532-.68718 1.64072-.68718 1.2056.24718 1.6407.68718.6796 1.0367.6796 1.6589zm16.2422 21.1149c.3047 0 .6064-.0607.8879-.1786s.5373-.2907.7528-.5086.3864-.4765.503-.7611c.1166-.2847.1766-.5897.1766-.8978s-.06-.6132-.1766-.8979c-.1166-.2846-.2875-.5432-.503-.7611-.2155-.2178-.4713-.3906-.7528-.5085s-.5832-.1786-.8879-.1786c-.6154 0-1.2056.2471-1.6407.6871-.4352.44-.6796 1.0367-.6796 1.659 0 .6222.2444 1.2189.6796 1.6589.4351.44 1.0253.6872 1.6407.6872zm-16.2422 7.0382c0 .6223-.2445 1.219-.6796 1.659s-1.0253.6871-1.6407.6871-1.20558-.2471-1.64072-.6871-.67961-1.0367-.67961-1.659c0-.6222.24447-1.2189.67961-1.6589s1.02532-.6872 1.64072-.6872 1.2056.2472 1.6407.6872.6796 1.0367.6796 1.6589zm-2.3203-7.0382c.3047 0 .6064-.0607.8879-.1786s.5373-.2907.7528-.5086.3864-.4765.503-.7611c.1166-.2847.1766-.5897.1766-.8978s-.06-.6132-.1766-.8979c-.1166-.2846-.2875-.5432-.503-.7611-.2155-.2178-.4713-.3906-.7528-.5085s-.5832-.1786-.8879-.1786c-.6154 0-1.20558.2471-1.64072.6871s-.67961 1.0367-.67961 1.659c0 .6222.24447 1.2189.67961 1.6589s1.02532.6872 1.64072.6872zm31.7109-11.7305c0 .6222-.2444 1.2189-.6796 1.6589-.4351.44-1.0253.6872-1.6407.6872s-1.2056-.2472-1.6407-.6872-.6796-1.0367-.6796-1.6589.2445-1.219.6796-1.659c.4351-.4399 1.0253-.6871 1.6407-.6871s1.2056.2472 1.6407.6871c.4352.44.6796 1.0368.6796 1.659zm-2.3203 11.7305c.3047 0 .6064-.0607.888-.1786.2815-.1179.5373-.2907.7527-.5086.2155-.2179.3864-.4765.503-.7611.1166-.2847.1766-.5897.1766-.8978s-.06-.6132-.1766-.8979c-.1166-.2846-.2875-.5432-.503-.7611-.2154-.2178-.4712-.3906-.7527-.5085-.2816-.1179-.5833-.1786-.888-.1786-.6154 0-1.2056.2471-1.6407.6871s-.6796 1.0367-.6796 1.659c0 .6222.2445 1.2189.6796 1.6589s1.0253.6872 1.6407.6872z" fill="#000"/></svg>