<svg fill="none" height="42" viewBox="0 0 44 42" width="44" xmlns="http://www.w3.org/2000/svg"><path d="m29.5096 2.60082c.0556-.18071.075-.37061.0572-.55883-.0178-.18823-.0725-.3711-.161-.53818-.0885-.16709-.209-.3151-.3547-.4356-.1457-.120506-.3137-.211131-.4944-.266707-.1807-.055575-.3706-.075012-.5588-.0572-.1883.017811-.3711.072522-.5382.161009s-.3151.209018-.4356.354708-.2111.31369-.2667.4944l-11.5156 37.42578c-.1123.365-.0749.7596.1038 1.097.1787.3375.4841.5901.8491.7023.3649.1123.7595.0749 1.097-.1038.3374-.1787.59-.4841.7023-.8491zm-16.191 7.19439c.1341.13371.2404.29259.313.46739.0726.1749.1099.3624.1099.5517 0 .1894-.0373.3769-.1099.5517-.0726.1749-.1789.3338-.313.4675l-9.05988 9.057 9.05988 9.0571c.2703.2702.4222.6368.4222 1.0191 0 .3822-.1519.7488-.4222 1.0191-.2702.2703-.6368.4222-1.0191.4222-.3822 0-.7488-.1519-1.0191-.4222l-10.0762-10.0762c-.13405-.1337-.240402-.2925-.312969-.4674s-.10992-.3624-.10992-.5517.037353-.3768.10992-.5517.178919-.3337.312969-.4674l10.0762-10.07619c.1337-.13406.2925-.24041.4674-.31298.1749-.07256.3624-.10992.5517-.10992s.3768.03736.5517.10992c.1749.07257.3337.17892.4674.31298zm18.1141 0c-.134.13371-.2404.29259-.313.46739-.0725.1749-.1099.3624-.1099.5517 0 .1894.0374.3769.1099.5517.0726.1749.179.3338.313.4675l9.0599 9.057-9.0599 9.0571c-.1338.1338-.24.2927-.3124.4675-.0724.1749-.1097.3623-.1097.5516s.0373.3767.1097.5515c.0724.1749.1786.3338.3124.4676.1339.1339.2927.24.4676.3124.1749.0725.3623.1098.5516.1098.1892 0 .3766-.0373.5515-.1098.1749-.0724.3338-.1785.4676-.3124l10.0762-10.0762c.134-.1337.2404-.2925.3129-.4674.0726-.1749.11-.3624.11-.5517s-.0374-.3768-.11-.5517c-.0725-.1749-.1789-.3337-.3129-.4674l-10.0762-10.07619c-.1337-.13406-.2926-.24041-.4675-.31298-.1748-.07256-.3623-.10992-.5516-.10992-.1894 0-.3769.03736-.5517.10992-.1749.07257-.3338.17892-.4675.31298z" fill="#000"/></svg>