<svg fill="none" height="48" viewBox="0 0 64 48" width="64" xmlns="http://www.w3.org/2000/svg"><g fill="#000"><path d="m.342773 6.5324c0-1.56809.610928-3.07196 1.698387-4.18077 1.08746-1.1088 2.56237-1.731726 4.10027-1.731726h17.39597c1.5379 0 3.0128.622926 4.1003 1.731726 1.0874 1.10881 1.6984 2.61268 1.6984 4.18077v2.95626h11.5973c1.5379 0 3.0128.62294 4.1002 1.73174 1.0875 1.1088 1.6984 2.6127 1.6984 4.1808v29.5625c0 .784-.3054 1.5359-.8492 2.0903-.5437.5544-1.2812.8659-2.0501.8659h-40.5906c-.76895 0-1.5064-.3115-2.05013-.8659-.543733-.5544-.849197-1.3063-.849197-2.0903zm28.993327 38.4313h5.7986v-5.9125h-5.7986zm8.6979 0h5.7987v-29.5625c0-.7841-.3055-1.536-.8492-2.0904s-1.2812-.8659-2.0501-.8659h-17.396c-.769 0-1.5064.3115-2.0501.8659-.5438.5544-.8492 1.3063-.8492 2.0904v29.5625h5.7986v-5.9125c0-.7841.3055-1.536.8492-2.0904.5438-.5544 1.2812-.8659 2.0502-.8659h5.7986c.769 0 1.5064.3115 2.0501.8659.5438.5544.8492 1.3063.8492 2.0904zm-11.5973-38.4313c0-.78404-.3054-1.53598-.8492-2.09038-.5437-.55441-1.2812-.86587-2.0501-.86587h-17.39597c-.76895 0-1.50641.31146-2.05013.86587-.54373.5544-.8492 1.30634-.8492 2.09038v38.4313h14.4966v-29.5625c0-1.5681.611-3.072 1.6984-4.1808 1.0875-1.1088 2.5624-1.73174 4.1003-1.73174h2.8993zm2.8994 14.0422c0 .588-.2291 1.152-.6369 1.5678s-.9609.6494-1.5376.6494-1.1298-.2336-1.5376-.6494-.6369-.9798-.6369-1.5678.2291-1.152.6369-1.5678.9609-.6494 1.5376-.6494 1.1298.2336 1.5376.6494.6369.9798.6369 1.5678zm-19.57051 2.2172c.57671 0 1.12981-.2336 1.53761-.6494s.6369-.9798.6369-1.5678-.2291-1.152-.6369-1.5678-.9609-.6494-1.53761-.6494-1.1298.2336-1.5376.6494-.6369.9798-.6369 1.5678.2291 1.152.6369 1.5678.96089.6494 1.5376.6494zm2.17451-11.086c0 .5881-.2291 1.152-.6369 1.5678s-.9609.6494-1.53761.6494-1.1298-.2336-1.5376-.6494-.6369-.9797-.6369-1.5678c0-.588.2291-1.1519.6369-1.5677.4078-.41585.96089-.64944 1.5376-.64944s1.12981.23359 1.53761.64944c.4078.4158.6369.9797.6369 1.5677zm15.2215 19.9547c.2855 0 .5683-.0573.8321-.1687.2638-.1115.5035-.2748.7055-.4807.2019-.2059.3621-.4503.4713-.7193.1093-.269.1656-.5573.1656-.8485 0-.2911-.0563-.5794-.1656-.8484-.1092-.269-.2694-.5135-.4713-.7193-.202-.2059-.4417-.3692-.7055-.4807-.2638-.1114-.5466-.1687-.8321-.1687-.5767 0-1.1298.2336-1.5376.6494s-.6369.9797-.6369 1.5677c0 .5881.2291 1.152.6369 1.5678s.9609.6494 1.5376.6494zm-15.2215 6.6516c0 .588-.2291 1.152-.6369 1.5678s-.9609.6494-1.53761.6494-1.1298-.2336-1.5376-.6494-.6369-.9798-.6369-1.5678.2291-1.152.6369-1.5678.96089-.6494 1.5376-.6494 1.12981.2336 1.53761.6494.6369.9798.6369 1.5678zm-2.17451-6.6516c.28551 0 .56831-.0573.83211-.1687.2639-.1115.5036-.2748.7055-.4807s.3621-.4503.4714-.7193c.1092-.269.1655-.5573.1655-.8485 0-.2911-.0563-.5794-.1655-.8484-.1093-.269-.2695-.5135-.4714-.7193-.2019-.2059-.4416-.3692-.7055-.4807-.2638-.1114-.5466-.1687-.83211-.1687-.57671 0-1.1298.2336-1.5376.6494s-.6369.9797-.6369 1.5677c0 .5881.2291 1.152.6369 1.5678s.96089.6494 1.5376.6494zm29.71811-11.0859c0 .588-.2291 1.152-.6369 1.5678s-.9609.6494-1.5376.6494-1.1298-.2336-1.5376-.6494-.6369-.9798-.6369-1.5678.2291-1.152.6369-1.5678.9609-.6494 1.5376-.6494 1.1298.2336 1.5376.6494.6369.9798.6369 1.5678zm-2.1745 11.0859c.2856 0 .5683-.0573.8322-.1687.2638-.1115.5035-.2748.7054-.4807s.3621-.4503.4714-.7193.1655-.5573.1655-.8485c0-.2911-.0562-.5794-.1655-.8484s-.2695-.5135-.4714-.7193c-.2019-.2059-.4416-.3692-.7054-.4807-.2639-.1114-.5466-.1687-.8322-.1687-.5767 0-1.1298.2336-1.5376.6494s-.6369.9797-.6369 1.5677c0 .5881.2291 1.152.6369 1.5678s.9609.6494 1.5376.6494z"/><path d="m62.0859 2.35163c1.0875 1.10881 1.6984 2.61268 1.6984 4.18077v38.4313c0 .784-.3054 1.5359-.8492 2.0903-.5437.5544-1.2812.8659-2.0501.8659h-16.9384v-2.9562h16.9384v-38.4313c0-.78404-.3055-1.53598-.8492-2.09038-.5437-.55441-1.2812-.86587-2.0501-.86587h-17.396c-.769 0-1.5064.31146-2.0501.86587-.5438.5544-.8492 1.30634-.8492 2.09038v2.95626h-2.8994v-2.95626c0-1.56809.611-3.07196 1.6984-4.18077 1.0875-1.1088 2.5624-1.731726 4.1003-1.731726h17.396c1.5379 0 3.0128.622926 4.1002 1.731726z"/><path d="m54.3615 31.6605c-.2856 0-.5683-.0573-.8321-.1687-.2639-.1115-.5036-.2748-.7055-.4807s-.3621-.4503-.4714-.7193c-.1092-.269-.1655-.5573-.1655-.8485 0-.2911.0563-.5794.1655-.8484.1093-.269.2695-.5135.4714-.7193.2019-.2059.4416-.3692.7055-.4807.2638-.1114.5465-.1687.8321-.1687.5767 0 1.1298.2336 1.5376.6494s.6369.9797.6369 1.5677c0 .5881-.2291 1.152-.6369 1.5678s-.9609.6494-1.5376.6494z"/><path d="m52.187 38.3121c0 .588.2291 1.152.6369 1.5678s.9609.6494 1.5376.6494 1.1298-.2336 1.5376-.6494.6369-.9798.6369-1.5678-.2291-1.152-.6369-1.5678-.9609-.6494-1.5376-.6494-1.1298.2336-1.5376.6494-.6369.9798-.6369 1.5678z"/><path d="m54.3615 22.7918c-.5767 0-1.1298-.2336-1.5376-.6494s-.6369-.9798-.6369-1.5678.2291-1.152.6369-1.5678.9609-.6494 1.5376-.6494 1.1298.2336 1.5376.6494.6369.9798.6369 1.5678-.2291 1.152-.6369 1.5678-.9609.6494-1.5376.6494z"/><path d="m52.187 11.7058c0 .5881.2291 1.152.6369 1.5678s.9609.6494 1.5376.6494 1.1298-.2336 1.5376-.6494.6369-.9797.6369-1.5678c0-.588-.2291-1.1519-.6369-1.5677-.4078-.41585-.9609-.64944-1.5376-.64944s-1.1298.23359-1.5376.64944c-.4078.4158-.6369.9797-.6369 1.5677z"/></g></svg>